# xmcd
#
# Track frame offsets:
#	150
#	19209
#	37594
#	51798
#	73680
#	85268
#	101585
#	128720
#	145886
#	162458
#
# Disc length: 2457 seconds
# Revision: 0
# Processed by: cddbd v1.5.2PL0 Copyright (c) Steve Scherf et al.
# Submitted via: dBpowerAMP V12.0
#
DISCID=8009970a
DTITLE=Benny Turner - Journey
DYEAR=2014
DGENRE=Blues
TTITLE0=Breakin' News  
TTITLE1=Don't You Ride My Mule  
TTITLE2=How I Wish   
TTITLE3=I Wanna Make It Right 
TTITLE4=My Mother's Blues  
TTITLE5=I Wanna Give It to You Baby  
TTITLE6=Worn Out Woman  
TTITLE7=My Uncle's Blues
TTITLE8=Voodo Lady  
TTITLE9=What's Wrong with the World Today
EXTD=
EXTT0=
EXTT1=
EXTT2=
EXTT3=
EXTT4=
EXTT5=
EXTT6=
EXTT7=
EXTT8=
EXTT9=
PLAYORDER=
